<?xml version="1.0" encoding="UTF-8" standalone="no"?>
<!DOCTYPE svg PUBLIC "-//W3C//DTD SVG 1.1//EN" "http://www.w3.org/Graphics/SVG/1.1/DTD/svg11.dtd">
<svg width="100%" height="100%" viewBox="0 0 48 48" version="1.1" xmlns="http://www.w3.org/2000/svg" xmlns:xlink="http://www.w3.org/1999/xlink" xml:space="preserve" xmlns:serif="http://www.serif.com/" style="fill-rule:evenodd;clip-rule:evenodd;stroke-linejoin:round;stroke-miterlimit:1.41;">
    <g>
        <g transform="matrix(1.0885,0,0,1.19877,-3.10496,-7.97746)">
            <path d="M32.985,46.275L16.817,46.275L15.271,46.273C14.836,46.271 14.402,46.265 13.967,46.255C13.017,46.244 12.069,46.169 11.132,46.029C10.194,45.883 9.286,45.611 8.436,45.221C6.73,44.432 5.342,43.173 4.473,41.624C4.044,40.852 3.745,40.026 3.585,39.174C3.43,38.323 3.347,37.462 3.334,36.6C3.323,36.205 3.316,35.811 3.316,35.416C3.312,34.948 3.312,34.48 3.312,34.012L3.312,19.335C3.312,18.865 3.312,18.399 3.316,17.929C3.317,17.534 3.323,17.14 3.334,16.745C3.346,15.883 3.428,15.023 3.585,14.173C3.744,13.321 4.044,12.495 4.473,11.723C5.342,10.173 6.731,8.913 8.438,8.124C9.288,7.735 10.196,7.463 11.134,7.316C12.071,7.178 13.019,7.101 13.969,7.091C14.404,7.081 14.838,7.075 15.273,7.073L16.821,7.072L32.985,7.072L34.533,7.073C34.967,7.075 35.401,7.081 35.835,7.091C36.787,7.103 37.735,7.176 38.672,7.318C39.609,7.463 40.517,7.736 41.368,8.124C43.074,8.913 44.462,10.174 45.331,11.723C45.76,12.495 46.059,13.321 46.219,14.173C46.374,15.023 46.458,15.884 46.47,16.747C46.481,17.141 46.487,17.535 46.488,17.929L46.49,18.524L46.49,34.596L46.488,35.416C46.487,35.809 46.479,36.205 46.47,36.6C46.456,37.462 46.376,38.322 46.219,39.174C46.06,40.026 45.76,40.851 45.331,41.622C44.462,43.171 43.074,44.432 41.368,45.221C40.518,45.611 39.61,45.883 38.672,46.029C37.735,46.169 36.787,46.244 35.835,46.255C35.401,46.265 34.967,46.27 34.533,46.272L32.985,46.275Z" style="fill:rgb(237,248,243);"/>
        </g>
        <g transform="matrix(0.204775,0,0,0.204775,0.39966,0.397612)">
            <path d="M158.22,230L72.28,230L64.06,229.99C61.75,229.978 59.44,229.942 57.13,229.88C52.08,229.82 47.04,229.38 42.06,228.56C37.075,227.705 32.245,226.111 27.73,223.83C18.66,219.212 11.283,211.837 6.66,202.77C4.382,198.252 2.791,193.418 1.94,188.43C1.119,183.447 0.675,178.41 0.61,173.36C0.55,171.05 0.51,168.74 0.51,166.43C0.49,163.69 0.49,160.95 0.49,158.21L0.49,72.29C0.49,69.54 0.49,66.81 0.51,64.06C0.518,61.75 0.552,59.44 0.61,57.13C0.67,52.08 1.11,47.05 1.94,42.07C2.789,37.081 4.38,32.248 6.66,27.73C11.284,18.657 18.665,11.279 27.74,6.66C32.256,4.382 37.085,2.788 42.07,1.93C47.05,1.12 52.09,0.67 57.14,0.61C59.45,0.552 61.76,0.518 64.07,0.51L72.3,0.5L158.22,0.5L166.45,0.51C168.757,0.518 171.064,0.552 173.37,0.61C178.43,0.68 183.47,1.11 188.45,1.94C193.43,2.79 198.26,4.39 202.78,6.66C211.851,11.28 219.23,18.659 223.85,27.73C226.127,32.249 227.718,37.082 228.57,42.07C229.39,47.05 229.84,52.09 229.9,57.14C229.958,59.446 229.992,61.753 230,64.06L230.01,67.54L230.01,161.63L230,166.43C229.99,168.73 229.95,171.05 229.9,173.36C229.83,178.41 229.4,183.44 228.57,188.43C227.72,193.415 226.129,198.246 223.85,202.76C219.229,211.831 211.851,219.209 202.78,223.83C198.265,226.111 193.435,227.706 188.45,228.56C183.47,229.38 178.43,229.82 173.37,229.88C171.064,229.938 168.757,229.972 166.45,229.98L158.22,230Z" style="fill:none;stroke:black;stroke-opacity:0.1;stroke-width:1px;"/>
        </g>
        <g id="main" transform="matrix(1,0,0,1,9,9)">
            <g transform="matrix(1.2,0,0,1.2,-2.99482,15.1953)">
                <circle cx="21.246" cy="6.087" r="6.25" style="fill:rgb(97,197,84);"/>
            </g>
            <g transform="matrix(1.2,0,0,1.2,-2.99482,0.195253)">
                <circle cx="21.246" cy="6.087" r="6.25" style="fill:rgb(245,190,80);"/>
            </g>
            <g transform="matrix(1.48905,0,0,1.13263,-7.33575,-3.97884)">
                <path d="M15,10.135C15,6.48 12.743,3.513 9.963,3.513C7.183,3.513 4.926,6.48 4.926,10.135L4.926,23.378C4.926,27.033 7.183,30 9.963,30C12.743,30 15,27.033 15,23.378L15,10.135Z" style="fill:rgb(237,106,94);"/>
            </g>
        </g>
    </g>
</svg>
